SourceSerifPro_1.ufo
<glyph name="exclam" format="1">
  <advance width="286"/>
  <unicode hex="0021"/>
  <outline>
    <contour>
      <point x="143" y="-15" type="curve" smooth="yes"/>
      <point x="178" y="-15"/>
      <point x="206" y="14"/>
      <point x="206" y="48" type="curve" smooth="yes"/>
      <point x="206" y="82"/>
      <point x="178" y="112"/>
      <point x="143" y="112" type="curve" smooth="yes"/>
      <point x="108" y="112"/>
      <point x="80" y="82"/>
      <point x="80" y="48" type="curve" smooth="yes"/>
      <point x="80" y="14"/>
      <point x="108" y="-15"/>
    </contour>
    <contour>
      <point x="143" y="685" type="curve" smooth="yes"/>
      <point x="109" y="685"/>
      <point x="88" y="667"/>
      <point x="88" y="624" type="curve" smooth="yes"/>
      <point x="88" y="587"/>
      <point x="99" y="492"/>
      <point x="112" y="352" type="curve" smooth="yes"/>
      <point x="125" y="213" type="line"/>
      <point x="161" y="213" type="line"/>
      <point x="174" y="352" type="line" smooth="yes"/>
      <point x="187" y="492"/>
      <point x="198" y="587"/>
      <point x="198" y="624" type="curve" smooth="yes"/>
      <point x="198" y="667"/>
      <point x="177" y="685"/>
    </contour>
  </outline>
</glyph>
<glyph name="dollar" format="1">
  <advance width="497"/>
  <unicode hex="0024"/>
  <outline>
    <contour>
      <point x="248" y="33" type="curve" smooth="yes"/>
      <point x="209" y="33"/>
      <point x="164" y="38"/>
      <point x="118" y="56" type="curve"/>
      <point x="171" y="20" type="line"/>
      <point x="154" y="96" type="line" smooth="yes"/>
      <point x="142" y="149"/>
      <point x="120" y="162"/>
      <point x="96" y="162" type="curve" smooth="yes"/>
      <point x="74" y="162"/>
      <point x="60" y="151"/>
      <point x="51" y="131" type="curve"/>
      <point x="55" y="44"/>
      <point x="136" y="-15"/>
      <point x="243" y="-15" type="curve" smooth="yes"/>
      <point x="379" y="-15"/>
      <point x="461" y="62"/>
      <point x="461" y="170" type="curve" smooth="yes"/>
      <point x="461" y="252"/>
      <point x="420" y="317"/>
      <point x="285" y="364" type="curve" smooth="yes"/>
      <point x="247" y="377" type="line" smooth="yes"/>
      <point x="176" y="400"/>
      <point x="136" y="435"/>
      <point x="136" y="499" type="curve" smooth="yes"/>
      <point x="136" y="574"/>
      <point x="193" y="611"/>
      <point x="267" y="611" type="curve" smooth="yes"/>
      <point x="297" y="611"/>
      <point x="333" y="606"/>
      <point x="375" y="589" type="curve"/>
      <point x="323" y="625" type="line"/>
      <point x="340" y="549" type="line" smooth="yes"/>
      <point x="352" y="497"/>
      <point x="377" y="483"/>
      <point x="399" y="483" type="curve" smooth="yes"/>
      <point x="418" y="483"/>
      <point x="435" y="493"/>
      <point x="443" y="514" type="curve"/>
      <point x="437" y="600"/>
      <point x="357" y="660"/>
      <point x="256" y="660" type="curve" smooth="yes"/>
      <point x="141" y="660"/>
      <point x="58" y="580"/>
      <point x="58" y="478" type="curve" smooth="yes"/>
      <point x="58" y="378"/>
      <point x="120" y="324"/>
      <point x="225" y="287" type="curve" smooth="yes"/>
      <point x="262" y="274" type="line" smooth="yes"/>
      <point x="347" y="244"/>
      <point x="383" y="214"/>
      <point x="383" y="151" type="curve" smooth="yes"/>
      <point x="383" y="76"/>
      <point x="330" y="33"/>
    </contour>
    <contour>
      <point x="281" y="315" type="line"/>
      <point x="281" y="750" type="line"/>
      <point x="241" y="750" type="line"/>
      <point x="241" y="329" type="line"/>
    </contour>
    <contour>
      <point x="236" y="-115" type="line"/>
      <point x="276" y="-115" type="line"/>
      <point x="276" y="315" type="line"/>
      <point x="236" y="329" type="line"/>
    </contour>
  </outline>
</glyph>
<glyph name="zero" format="1">
  <advance width="497"/>
  <unicode hex="0030"/>
  <outline>
    <contour>
      <point x="130" y="322" type="curve" smooth="yes"/>
      <point x="130" y="557"/>
      <point x="187" y="615"/>
      <point x="250" y="615" type="curve" smooth="yes"/>
      <point x="311" y="615"/>
      <point x="368" y="556"/>
      <point x="368" y="322" type="curve" smooth="yes"/>
      <point x="368" y="89"/>
      <point x="311" y="30"/>
      <point x="250" y="30" type="curve" smooth="yes"/>
      <point x="187" y="30"/>
      <point x="130" y="88"/>
    </contour>
    <contour>
      <point x="250" y="660" type="curve" smooth="yes"/>
      <point x="144" y="660"/>
      <point x="41" y="571"/>
      <point x="41" y="322" type="curve" smooth="yes"/>
      <point x="41" y="73"/>
      <point x="144" y="-15"/>
      <point x="250" y="-15" type="curve" smooth="yes"/>
      <point x="354" y="-15"/>
      <point x="457" y="73"/>
      <point x="457" y="322" type="curve" smooth="yes"/>
      <point x="457" y="571"/>
      <point x="354" y="660"/>
    </contour>
  </outline>
</glyph>
<glyph name="b" format="1">
  <advance width="575"/>
  <unicode hex="0062"/>
  <outline>
    <contour>
      <point x="105" y="0" type="curve"/>
      <point x="138" y="55" type="line"/>
      <point x="30" y="35" type="line"/>
      <point x="30" y="0" type="line"/>
      <point x="178" y="-10" type="line"/>
      <point x="188" y="78" type="line"/>
      <point x="188" y="388" type="line"/>
      <point x="185" y="401" type="line"/>
      <point x="185" y="580" type="line"/>
      <point x="189" y="722" type="line"/>
      <point x="175" y="730" type="line"/>
      <point x="25" y="685" type="line"/>
      <point x="25" y="650" type="line"/>
      <point x="108" y="640" type="line"/>
      <point x="108" y="210" type="line" smooth="yes"/>
      <point x="108" y="148"/>
      <point x="107" y="45"/>
    </contour>
    <contour>
      <point x="444" y="233" type="curve" smooth="yes"/>
      <point x="444" y="104"/>
      <point x="382" y="40"/>
      <point x="310" y="40" type="curve" smooth="yes"/>
      <point x="263" y="40"/>
      <point x="209" y="67"/>
      <point x="157" y="133" type="curve"/>
      <point x="148" y="117" type="line"/>
      <point x="201" y="13"/>
      <point x="263" y="-15"/>
      <point x="324" y="-15" type="curve" smooth="yes"/>
      <point x="441" y="-15"/>
      <point x="529" y="88"/>
      <point x="529" y="242" type="curve" smooth="yes"/>
      <point x="529" y="396"/>
      <point x="445" y="490"/>
      <point x="339" y="490" type="curve" smooth="yes"/>
      <point x="271" y="490"/>
      <point x="206" y="452"/>
      <point x="148" y="364" type="curve"/>
      <point x="157" y="346" type="line"/>
      <point x="230" y="419"/>
      <point x="279" y="435"/>
      <point x="315" y="435" type="curve" smooth="yes"/>
      <point x="391" y="435"/>
      <point x="444" y="362"/>
    </contour>
  </outline>
</glyph>
<glyph name="d" format="1">
  <advance width="565"/>
  <unicode hex="0064"/>
  <outline>
    <contour>
      <point x="131" y="235" type="curve" smooth="yes"/>
      <point x="131" y="372"/>
      <point x="196" y="435"/>
      <point x="271" y="435" type="curve" smooth="yes"/>
      <point x="309" y="435"/>
      <point x="349" y="419"/>
      <point x="407" y="363" type="curve"/>
      <point x="417" y="389" type="line"/>
      <point x="365" y="467"/>
      <point x="316" y="490"/>
      <point x="259" y="490" type="curve" smooth="yes"/>
      <point x="136" y="490"/>
      <point x="46" y="385"/>
      <point x="46" y="233" type="curve" smooth="yes"/>
      <point x="46" y="88"/>
      <point x="128" y="-15"/>
      <point x="250" y="-15" type="curve" smooth="yes"/>
      <point x="328" y="-15"/>
      <point x="375" y="26"/>
      <point x="413" y="94" type="curve"/>
      <point x="404" y="121" type="line"/>
      <point x="358" y="62"/>
      <point x="323" y="40"/>
      <point x="272" y="40" type="curve" smooth="yes"/>
      <point x="191" y="40"/>
      <point x="131" y="102"/>
    </contour>
    <contour>
      <point x="451" y="51" type="line"/>
      <point x="467" y="0" type="line"/>
      <point x="467" y="580" type="line"/>
      <point x="471" y="722" type="line"/>
      <point x="457" y="730" type="line"/>
      <point x="304" y="685" type="line"/>
      <point x="304" y="650" type="line"/>
      <point x="390" y="640" type="line"/>
      <point x="390" y="401" type="line"/>
      <point x="387" y="388" type="line"/>
      <point x="387" y="90" type="line"/>
      <point x="397" y="-10" type="line"/>
      <point x="550" y="0" type="line"/>
      <point x="550" y="35" type="line"/>
    </contour>
  </outline>
</glyph>
<glyph name="e" format="1">
  <advance width="509"/>
  <unicode hex="0065"/>
  <outline>
    <contour>
      <point x="276" y="490" type="curve" smooth="yes"/>
      <point x="152" y="490"/>
      <point x="48" y="385"/>
      <point x="48" y="232" type="curve" smooth="yes"/>
      <point x="48" y="80"/>
      <point x="135" y="-15"/>
      <point x="269" y="-15" type="curve" smooth="yes"/>
      <point x="360" y="-15"/>
      <point x="424" y="30"/>
      <point x="460" y="101" type="curve"/>
      <point x="437" y="119" type="line"/>
      <point x="401" y="77"/>
      <point x="361" y="48"/>
      <point x="297" y="48" type="curve" smooth="yes"/>
      <point x="197" y="48"/>
      <point x="133" y="121"/>
      <point x="133" y="248" type="curve" smooth="yes"/>
      <point x="133" y="391"/>
      <point x="207" y="445"/>
      <point x="271" y="445" type="curve" smooth="yes"/>
      <point x="334" y="445"/>
      <point x="382" y="393"/>
      <point x="382" y="336" type="curve" smooth="yes"/>
      <point x="382" y="308"/>
      <point x="371" y="285"/>
      <point x="323" y="285" type="curve" smooth="yes"/>
      <point x="85" y="285" type="line"/>
      <point x="85" y="243" type="line"/>
      <point x="454" y="243" type="line"/>
      <point x="458" y="256"/>
      <point x="461" y="276"/>
      <point x="461" y="299" type="curve" smooth="yes"/>
      <point x="461" y="420"/>
      <point x="379" y="490"/>
    </contour>
  </outline>
</glyph>
<glyph name="m" format="1">
  <advance width="901"/>
  <unicode hex="006D"/>
  <outline>
    <contour>
      <point x="371" y="490" type="curve" smooth="yes"/>
      <point x="301" y="490"/>
      <point x="224" y="441"/>
      <point x="177" y="378" type="curve"/>
      <point x="220" y="396" type="line"/>
      <point x="169" y="396" type="line"/>
      <point x="169" y="351" type="line"/>
      <point x="190" y="351" type="line"/>
      <point x="246" y="400"/>
      <point x="285" y="420"/>
      <point x="334" y="420" type="curve" smooth="yes"/>
      <point x="394" y="420"/>
      <point x="418" y="390"/>
      <point x="418" y="297" type="curve" smooth="yes"/>
      <point x="418" y="210" type="line" smooth="yes"/>
      <point x="418" y="146"/>
      <point x="417" y="45"/>
      <point x="415" y="0" type="curve"/>
      <point x="501" y="0" type="line"/>
      <point x="499" y="45"/>
      <point x="498" y="146"/>
      <point x="498" y="210" type="curve" smooth="yes"/>
      <point x="498" y="305" type="line" smooth="yes"/>
      <point x="498" y="437"/>
      <point x="457" y="490"/>
    </contour>
    <contour>
      <point x="671" y="490" type="curve" smooth="yes"/>
      <point x="600" y="490"/>
      <point x="526" y="452"/>
      <point x="474" y="378" type="curve"/>
      <point x="520" y="386" type="line"/>
      <point x="466" y="386" type="line"/>
      <point x="466" y="351" type="line"/>
      <point x="490" y="351" type="line"/>
      <point x="546" y="402"/>
      <point x="588" y="420"/>
      <point x="633" y="420" type="curve" smooth="yes"/>
      <point x="692" y="420"/>
      <point x="718" y="393"/>
      <point x="718" y="299" type="curve" smooth="yes"/>
      <point x="718" y="210" type="line" smooth="yes"/>
      <point x="718" y="146"/>
      <point x="717" y="45"/>
      <point x="715" y="0" type="curve"/>
      <point x="801" y="0" type="line"/>
      <point x="799" y="45"/>
      <point x="798" y="146"/>
      <point x="798" y="210" type="curve" smooth="yes"/>
      <point x="798" y="316" type="line" smooth="yes"/>
      <point x="798" y="440"/>
      <point x="751" y="490"/>
    </contour>
    <contour>
      <point x="201" y="0" type="line"/>
      <point x="199" y="45"/>
      <point x="198" y="148"/>
      <point x="198" y="210" type="curve"/>
      <point x="198" y="364" type="line"/>
      <point x="186" y="480" type="line"/>
      <point x="171" y="490" type="line"/>
      <point x="35" y="430" type="line"/>
      <point x="35" y="395" type="line"/>
      <point x="115" y="386" type="line"/>
      <point x="117" y="346"/>
      <point x="118" y="315"/>
      <point x="118" y="260" type="curve" smooth="yes"/>
      <point x="118" y="210" type="line" smooth="yes"/>
      <point x="118" y="148"/>
      <point x="117" y="45"/>
      <point x="115" y="0" type="curve"/>
    </contour>
    <contour>
      <point x="171" y="55" type="line"/>
      <point x="151" y="55" type="line"/>
      <point x="41" y="35" type="line"/>
      <point x="41" y="0" type="line"/>
      <point x="271" y="0" type="line"/>
      <point x="271" y="35" type="line"/>
    </contour>
    <contour>
      <point x="451" y="55" type="line"/>
      <point x="341" y="35" type="line"/>
      <point x="341" y="0" type="line"/>
      <point x="571" y="0" type="line"/>
      <point x="571" y="35" type="line"/>
      <point x="471" y="55" type="line"/>
    </contour>
    <contour>
      <point x="751" y="55" type="line"/>
      <point x="641" y="35" type="line"/>
      <point x="641" y="0" type="line"/>
      <point x="871" y="0" type="line"/>
      <point x="871" y="35" type="line"/>
      <point x="771" y="55" type="line"/>
    </contour>
  </outline>
</glyph>
<glyph name="o" format="1">
  <advance width="548"/>
  <unicode hex="006F"/>
  <outline>
    <contour>
      <point x="274" y="445" type="curve" smooth="yes"/>
      <point x="362" y="445"/>
      <point x="412" y="370"/>
      <point x="412" y="236" type="curve" smooth="yes"/>
      <point x="412" y="102"/>
      <point x="362" y="30"/>
      <point x="274" y="30" type="curve" smooth="yes"/>
      <point x="186" y="30"/>
      <point x="136" y="102"/>
      <point x="136" y="236" type="curve" smooth="yes"/>
      <point x="136" y="370"/>
      <point x="186" y="445"/>
    </contour>
    <contour>
      <point x="274" y="490" type="curve" smooth="yes"/>
      <point x="160" y="490"/>
      <point x="46" y="402"/>
      <point x="46" y="236" type="curve" smooth="yes"/>
      <point x="46" y="70"/>
      <point x="160" y="-15"/>
      <point x="274" y="-15" type="curve" smooth="yes"/>
      <point x="388" y="-15"/>
      <point x="502" y="70"/>
      <point x="502" y="236" type="curve" smooth="yes"/>
      <point x="502" y="402"/>
      <point x="388" y="490"/>
    </contour>
  </outline>
</glyph>
<glyph name="p" format="1">
  <advance width="581"/>
  <unicode hex="0070"/>
  <outline>
    <contour>
      <point x="450" y="233" type="curve" smooth="yes"/>
      <point x="450" y="104"/>
      <point x="388" y="40"/>
      <point x="312" y="40" type="curve" smooth="yes"/>
      <point x="263" y="40"/>
      <point x="215" y="67"/>
      <point x="163" y="133" type="curve"/>
      <point x="154" y="117" type="line"/>
      <point x="207" y="13"/>
      <point x="269" y="-15"/>
      <point x="330" y="-15" type="curve" smooth="yes"/>
      <point x="447" y="-15"/>
      <point x="535" y="88"/>
      <point x="535" y="242" type="curve" smooth="yes"/>
      <point x="535" y="396"/>
      <point x="451" y="490"/>
      <point x="345" y="490" type="curve" smooth="yes"/>
      <point x="277" y="490"/>
      <point x="212" y="452"/>
      <point x="154" y="364" type="curve"/>
      <point x="163" y="346" type="line"/>
      <point x="236" y="417"/>
      <point x="286" y="435"/>
      <point x="323" y="435" type="curve" smooth="yes"/>
      <point x="397" y="435"/>
      <point x="450" y="362"/>
    </contour>
    <contour>
      <point x="168" y="-185" type="line"/>
      <point x="148" y="-185" type="line"/>
      <point x="35" y="-205" type="line"/>
      <point x="35" y="-240" type="line"/>
      <point x="291" y="-240" type="line"/>
      <point x="291" y="-205" type="line"/>
    </contour>
    <contour>
      <point x="119" y="-30" type="line" smooth="yes"/>
      <point x="119" y="-100"/>
      <point x="118" y="-170"/>
      <point x="116" y="-240" type="curve"/>
      <point x="199" y="-240" type="line"/>
      <point x="197" y="-170"/>
      <point x="196" y="-100"/>
      <point x="196" y="-30" type="curve" smooth="yes"/>
      <point x="196" y="70" type="line"/>
      <point x="199" y="76" type="line"/>
      <point x="199" y="393" type="line"/>
      <point x="195" y="395" type="line"/>
      <point x="187" y="480" type="line"/>
      <point x="172" y="490" type="line"/>
      <point x="36" y="430" type="line"/>
      <point x="36" y="395" type="line"/>
      <point x="116" y="386" type="line"/>
      <point x="118" y="346"/>
      <point x="119" y="315"/>
      <point x="119" y="260" type="curve" smooth="yes"/>
    </contour>
  </outline>
</glyph>
<glyph name="q" format="1">
  <advance width="555"/>
  <unicode hex="0071"/>
  <outline>
    <contour>
      <point x="131" y="235" type="curve" smooth="yes"/>
      <point x="131" y="372"/>
      <point x="196" y="435"/>
      <point x="271" y="435" type="curve" smooth="yes"/>
      <point x="309" y="435"/>
      <point x="349" y="419"/>
      <point x="407" y="363" type="curve"/>
      <point x="417" y="389" type="line"/>
      <point x="365" y="467"/>
      <point x="311" y="490"/>
      <point x="255" y="490" type="curve" smooth="yes"/>
      <point x="136" y="490"/>
      <point x="46" y="385"/>
      <point x="46" y="233" type="curve" smooth="yes"/>
      <point x="46" y="88"/>
      <point x="128" y="-15"/>
      <point x="250" y="-15" type="curve" smooth="yes"/>
      <point x="319" y="-15"/>
      <point x="370" y="18"/>
      <point x="413" y="95" type="curve"/>
      <point x="404" y="121" type="line"/>
      <point x="358" y="63"/>
      <point x="322" y="40"/>
      <point x="272" y="40" type="curve" smooth="yes"/>
      <point x="191" y="40"/>
      <point x="131" y="102"/>
    </contour>
    <contour>
      <point x="422" y="-185" type="line"/>
      <point x="299" y="-205" type="line"/>
      <point x="299" y="-240" type="line"/>
      <point x="555" y="-240" type="line"/>
      <point x="555" y="-205" type="line"/>
      <point x="442" y="-185" type="line"/>
    </contour>
    <contour>
      <point x="471" y="-30" type="curve" smooth="yes"/>
      <point x="471" y="345" type="line"/>
      <point x="474" y="480" type="line"/>
      <point x="459" y="490" type="line"/>
      <point x="391" y="418" type="line"/>
      <point x="391" y="84" type="line"/>
      <point x="394" y="70" type="line"/>
      <point x="394" y="-30" type="line" smooth="yes"/>
      <point x="394" y="-100"/>
      <point x="393" y="-170"/>
      <point x="391" y="-240" type="curve"/>
      <point x="474" y="-240" type="line"/>
      <point x="472" y="-170"/>
      <point x="471" y="-100"/>
    </contour>
  </outline>
</glyph>
<glyph name="t" format="1">
  <advance width="323"/>
  <unicode hex="0074"/>
  <outline>
    <contour>
      <point x="133" y="472" type="line"/>
      <point x="133" y="420" type="line"/>
      <point x="311" y="420" type="line"/>
      <point x="311" y="472" type="line"/>
    </contour>
    <contour>
      <point x="173" y="114" type="curve"/>
      <point x="173" y="433" type="line"/>
      <point x="181" y="610" type="line"/>
      <point x="123" y="610" type="line"/>
      <point x="93" y="446" type="line"/>
      <point x="133" y="479" type="line"/>
      <point x="9" y="463" type="line"/>
      <point x="9" y="420" type="line"/>
      <point x="93" y="420" type="line"/>
      <point x="93" y="187" type="line" smooth="yes"/>
      <point x="93" y="148"/>
      <point x="92" y="127"/>
      <point x="92" y="103" type="curve" smooth="yes"/>
      <point x="92" y="26"/>
      <point x="135" y="-10"/>
      <point x="204" y="-10" type="curve" smooth="yes"/>
      <point x="254" y="-10"/>
      <point x="295" y="9"/>
      <point x="320" y="41" type="curve"/>
      <point x="297" y="68" type="line"/>
      <point x="271" y="49"/>
      <point x="251" y="40"/>
      <point x="229" y="40" type="curve" smooth="yes"/>
      <point x="195" y="40"/>
      <point x="173" y="62"/>
    </contour>
  </outline>
</glyph>
<glyph name="w" format="1">
  <advance width="762"/>
  <unicode hex="0077"/>
  <outline>
    <contour>
      <point x="395" y="417" type="line"/>
      <point x="415" y="417" type="line"/>
      <point x="510" y="432" type="line"/>
      <point x="510" y="472" type="line"/>
      <point x="290" y="472" type="line"/>
      <point x="290" y="432" type="line"/>
    </contour>
    <contour>
      <point x="118" y="417" type="line"/>
      <point x="226" y="432" type="line"/>
      <point x="226" y="472" type="line"/>
      <point x="0" y="472" type="line"/>
      <point x="0" y="432" type="line"/>
      <point x="98" y="417" type="line"/>
    </contour>
    <contour>
      <point x="682" y="417" type="line"/>
      <point x="752" y="432" type="line"/>
      <point x="752" y="472" type="line"/>
      <point x="569" y="472" type="line"/>
      <point x="569" y="432" type="line"/>
      <point x="662" y="417" type="line"/>
    </contour>
    <contour>
      <point x="384" y="472" type="line"/>
      <point x="241" y="79" type="line"/>
      <point x="263" y="79" type="line"/>
      <point x="130" y="472" type="line"/>
      <point x="40" y="472" type="line"/>
      <point x="219" y="-10" type="line"/>
      <point x="254" y="-10" type="line"/>
      <point x="393" y="366" type="line"/>
      <point x="373" y="366" type="line"/>
      <point x="518" y="-10" type="line"/>
      <point x="553" y="-10" type="line"/>
      <point x="716" y="472" type="line"/>
      <point x="660" y="472" type="line"/>
      <point x="540" y="79" type="line"/>
      <point x="562" y="79" type="line"/>
      <point x="414" y="472" type="line"/>
    </contour>
  </outline>
</glyph>
<glyph name="z" format="1">
  <advance width="455"/>
  <unicode hex="007A"/>
  <outline>
    <contour>
      <point x="44" y="472" type="line"/>
      <point x="36" y="323" type="line"/>
      <point x="86" y="319" type="line"/>
      <point x="123" y="472" type="line"/>
      <point x="87" y="430" type="line"/>
      <point x="349" y="430" type="line"/>
      <point x="349" y="472" type="line"/>
      <point x="30" y="35" type="line"/>
      <point x="30" y="0" type="line"/>
      <point x="420" y="0" type="line"/>
      <point x="430" y="163" type="line"/>
      <point x="380" y="163" type="line"/>
      <point x="340" y="0" type="line"/>
      <point x="384" y="42" type="line"/>
      <point x="97" y="42" type="line"/>
      <point x="97" y="0" type="line"/>
      <point x="415" y="437" type="line"/>
      <point x="415" y="472" type="line"/>
    </contour>
  </outline>
</glyph>
<glyph name="Oslash" format="1">
  <advance width="707"/>
  <unicode hex="00D8"/>
  <outline>
    <contour>
      <point x="646" y="657" type="line"/>
      <point x="604" y="690" type="line"/>
      <point x="52" y="13" type="line"/>
      <point x="94" y="-20" type="line"/>
    </contour>
    <component base="O"/>
  </outline>
</glyph>
<glyph name="thorn" format="1">
  <advance width="551"/>
  <unicode hex="00FE"/>
  <outline>
    <contour>
      <point x="420" y="233" type="curve" smooth="yes"/>
      <point x="420" y="104"/>
      <point x="358" y="40"/>
      <point x="286" y="40" type="curve" smooth="yes"/>
      <point x="239" y="40"/>
      <point x="185" y="67"/>
      <point x="133" y="133" type="curve"/>
      <point x="124" y="117" type="line"/>
      <point x="177" y="13"/>
      <point x="239" y="-15"/>
      <point x="300" y="-15" type="curve" smooth="yes"/>
      <point x="417" y="-15"/>
      <point x="505" y="88"/>
      <point x="505" y="242" type="curve" smooth="yes"/>
      <point x="505" y="396"/>
      <point x="421" y="490"/>
      <point x="315" y="490" type="curve" smooth="yes"/>
      <point x="247" y="490"/>
      <point x="182" y="452"/>
      <point x="124" y="364" type="curve"/>
      <point x="133" y="346" type="line"/>
      <point x="206" y="419"/>
      <point x="255" y="435"/>
      <point x="291" y="435" type="curve" smooth="yes"/>
      <point x="367" y="435"/>
      <point x="420" y="362"/>
    </contour>
    <contour>
      <point x="138" y="-185" type="curve"/>
      <point x="118" y="-185" type="line"/>
      <point x="5" y="-205" type="line"/>
      <point x="5" y="-240" type="line"/>
      <point x="261" y="-240" type="line"/>
      <point x="261" y="-205" type="line"/>
      <point x="261" y="-205"/>
      <point x="138" y="-185"/>
    </contour>
    <contour>
      <point x="169" y="388" type="line"/>
      <point x="166" y="401" type="line"/>
      <point x="166" y="580" type="line"/>
      <point x="170" y="722" type="line"/>
      <point x="156" y="730" type="line"/>
      <point x="6" y="685" type="line"/>
      <point x="6" y="650" type="line"/>
      <point x="89" y="640" type="line"/>
      <point x="89" y="-30" type="line" smooth="yes"/>
      <point x="89" y="-100"/>
      <point x="88" y="-170"/>
      <point x="86" y="-240" type="curve"/>
      <point x="169" y="-240" type="line"/>
      <point x="167" y="-170"/>
      <point x="166" y="-100"/>
      <point x="166" y="-30" type="curve" smooth="yes"/>
      <point x="166" y="70" type="line"/>
      <point x="169" y="76" type="line"/>
    </contour>
  </outline>
</glyph>
<glyph name="eogonek" format="1">
  <advance width="509"/>
  <unicode hex="0119"/>
  <outline>
    <contour>
      <point x="346" y="-220" type="curve" smooth="yes"/>
      <point x="389" y="-220"/>
      <point x="425" y="-206"/>
      <point x="449" y="-172" type="curve"/>
      <point x="437" y="-150" type="line"/>
      <point x="417" y="-162"/>
      <point x="398" y="-165"/>
      <point x="385" y="-165" type="curve" smooth="yes"/>
      <point x="346" y="-165"/>
      <point x="317" y="-140"/>
      <point x="317" y="-97" type="curve" smooth="yes"/>
      <point x="317" y="-57"/>
      <point x="344" y="-19"/>
      <point x="384" y="13" type="curve" smooth="yes"/>
      <point x="421" y="42"/>
      <point x="441" y="63"/>
      <point x="460" y="101" type="curve"/>
      <point x="437" y="119" type="line"/>
      <point x="401" y="77"/>
      <point x="361" y="48"/>
      <point x="298" y="48" type="curve" smooth="yes"/>
      <point x="197" y="48"/>
      <point x="133" y="121"/>
      <point x="133" y="244" type="curve" smooth="yes"/>
      <point x="133" y="391"/>
      <point x="207" y="445"/>
      <point x="270" y="445" type="curve" smooth="yes"/>
      <point x="334" y="445"/>
      <point x="382" y="393"/>
      <point x="382" y="336" type="curve" smooth="yes"/>
      <point x="382" y="303"/>
      <point x="371" y="285"/>
      <point x="323" y="285" type="curve" smooth="yes"/>
      <point x="85" y="285" type="line"/>
      <point x="85" y="243" type="line"/>
      <point x="454" y="243" type="line"/>
      <point x="458" y="256"/>
      <point x="461" y="276"/>
      <point x="461" y="298" type="curve" smooth="yes"/>
      <point x="461" y="420"/>
      <point x="379" y="490"/>
      <point x="275" y="490" type="curve" smooth="yes"/>
      <point x="152" y="490"/>
      <point x="48" y="385"/>
      <point x="48" y="236" type="curve" smooth="yes"/>
      <point x="48" y="79"/>
      <point x="135" y="-15"/>
      <point x="269" y="-15" type="curve" smooth="yes"/>
      <point x="297" y="-15"/>
      <point x="328" y="-11"/>
      <point x="356" y="-3" type="curve"/>
      <point x="356" y="13" type="line"/>
      <point x="303" y="-14"/>
      <point x="256" y="-71"/>
      <point x="256" y="-132" type="curve" smooth="yes"/>
      <point x="256" y="-187"/>
      <point x="293" y="-220"/>
    </contour>
  </outline>
</glyph>
<glyph name="dotlessi" format="1">
  <advance width="297"/>
  <unicode hex="0131"/>
  <outline>
    <contour>
      <point x="196" y="0" type="line"/>
      <point x="194" y="45"/>
      <point x="193" y="148"/>
      <point x="193" y="210" type="curve"/>
      <point x="193" y="345" type="line"/>
      <point x="196" y="480" type="line"/>
      <point x="181" y="490" type="line"/>
      <point x="30" y="430" type="line"/>
      <point x="30" y="395" type="line"/>
      <point x="110" y="386" type="line"/>
      <point x="112" y="346"/>
      <point x="113" y="315"/>
      <point x="113" y="260" type="curve" smooth="yes"/>
      <point x="113" y="210" type="line" smooth="yes"/>
      <point x="113" y="148"/>
      <point x="112" y="45"/>
      <point x="110" y="0" type="curve"/>
    </contour>
    <contour>
      <point x="165" y="55" type="line"/>
      <point x="145" y="55" type="line"/>
      <point x="35" y="35" type="line"/>
      <point x="35" y="0" type="line"/>
      <point x="265" y="0" type="line"/>
      <point x="265" y="35" type="line"/>
    </contour>
  </outline>
</glyph>
<glyph name="lslash" format="1">
  <advance width="296"/>
  <unicode hex="0142"/>
  <outline>
    <contour>
      <point x="147" y="414" type="line"/>
      <point x="25" y="351" type="line"/>
      <point x="25" y="297" type="line"/>
      <point x="147" y="360" type="line"/>
    </contour>
    <contour>
      <point x="271" y="474" type="line"/>
      <point x="147" y="409" type="line"/>
      <point x="147" y="355" type="line"/>
      <point x="271" y="419" type="line"/>
    </contour>
    <component base="l"/>
  </outline>
</glyph>
<glyph name="oe" format="1">
  <advance width="869"/>
  <unicode hex="0153"/>
  <outline>
    <contour>
      <point x="274" y="445" type="curve" smooth="yes"/>
      <point x="362" y="445"/>
      <point x="412" y="370"/>
      <point x="412" y="236" type="curve" smooth="yes"/>
      <point x="412" y="102"/>
      <point x="362" y="30"/>
      <point x="274" y="30" type="curve" smooth="yes"/>
      <point x="186" y="30"/>
      <point x="136" y="102"/>
      <point x="136" y="236" type="curve" smooth="yes"/>
      <point x="136" y="370"/>
      <point x="186" y="445"/>
    </contour>
    <contour>
      <point x="475" y="126" type="curve"/>
      <point x="432" y="126" type="line"/>
      <point x="460" y="38"/>
      <point x="530" y="-15"/>
      <point x="629" y="-15" type="curve" smooth="yes"/>
      <point x="717" y="-15"/>
      <point x="782" y="26"/>
      <point x="820" y="101" type="curve"/>
      <point x="797" y="119" type="line"/>
      <point x="767" y="80"/>
      <point x="721" y="48"/>
      <point x="657" y="48" type="curve" smooth="yes"/>
      <point x="557" y="48"/>
      <point x="493" y="121"/>
      <point x="493" y="244" type="curve" smooth="yes"/>
      <point x="493" y="391"/>
      <point x="567" y="445"/>
      <point x="630" y="445" type="curve" smooth="yes"/>
      <point x="696" y="445"/>
      <point x="742" y="393"/>
      <point x="742" y="336" type="curve" smooth="yes"/>
      <point x="742" y="305"/>
      <point x="729" y="285"/>
      <point x="683" y="285" type="curve" smooth="yes"/>
      <point x="447" y="285" type="line"/>
      <point x="447" y="243" type="line"/>
      <point x="814" y="243" type="line"/>
      <point x="818" y="256"/>
      <point x="821" y="276"/>
      <point x="821" y="298" type="curve" smooth="yes"/>
      <point x="821" y="420"/>
      <point x="739" y="490"/>
      <point x="635" y="490" type="curve" smooth="yes"/>
      <point x="553" y="490"/>
      <point x="469" y="435"/>
      <point x="438" y="352" type="curve"/>
      <point x="475" y="352" type="line"/>
      <point x="443" y="439"/>
      <point x="353" y="490"/>
      <point x="274" y="490" type="curve" smooth="yes"/>
      <point x="160" y="490"/>
      <point x="46" y="402"/>
      <point x="46" y="236" type="curve" smooth="yes"/>
      <point x="46" y="70"/>
      <point x="160" y="-15"/>
      <point x="274" y="-15" type="curve" smooth="yes"/>
      <point x="353" y="-15"/>
      <point x="441" y="35"/>
    </contour>
  </outline>
</glyph>
<glyph name="acutecmb" format="1">
  <advance width="0"/>
  <unicode hex="0301"/>
  <outline>
    <contour>
      <point x="-68" y="576" type="line"/>
      <point x="-43" y="557" type="line"/>
      <point x="79" y="667" type="line" smooth="yes"/>
      <point x="106" y="691"/>
      <point x="111" y="707"/>
      <point x="111" y="720" type="curve" smooth="yes"/>
      <point x="111" y="745"/>
      <point x="93" y="757"/>
      <point x="74" y="757" type="curve" smooth="yes"/>
      <point x="57" y="757"/>
      <point x="40" y="747"/>
      <point x="21" y="717" type="curve" smooth="yes"/>
    </contour>
  </outline>
</glyph>
<glyph name="dieresiscmb" format="1">
  <advance width="0"/>
  <unicode hex="0308"/>
  <outline>
    <contour>
      <point x="100" y="587" type="curve" smooth="yes"/>
      <point x="131" y="587"/>
      <point x="156" y="610"/>
      <point x="156" y="641" type="curve" smooth="yes"/>
      <point x="156" y="672"/>
      <point x="131" y="695"/>
      <point x="100" y="695" type="curve" smooth="yes"/>
      <point x="69" y="695"/>
      <point x="43" y="672"/>
      <point x="43" y="641" type="curve" smooth="yes"/>
      <point x="43" y="610"/>
      <point x="69" y="587"/>
    </contour>
    <contour>
      <point x="-100" y="587" type="curve" smooth="yes"/>
      <point x="-69" y="587"/>
      <point x="-43" y="610"/>
      <point x="-43" y="641" type="curve" smooth="yes"/>
      <point x="-43" y="672"/>
      <point x="-69" y="695"/>
      <point x="-100" y="695" type="curve" smooth="yes"/>
      <point x="-131" y="695"/>
      <point x="-156" y="672"/>
      <point x="-156" y="641" type="curve" smooth="yes"/>
      <point x="-156" y="610"/>
      <point x="-131" y="587"/>
    </contour>
  </outline>
</glyph>
<glyph name="ringcmb" format="1">
  <advance width="0"/>
  <unicode hex="030A"/>
  <outline>
    <contour>
      <point x="0" y="578" type="curve" smooth="yes"/>
      <point x="-37" y="578"/>
      <point x="-57" y="609"/>
      <point x="-57" y="640" type="curve" smooth="yes"/>
      <point x="-57" y="671"/>
      <point x="-36" y="701"/>
      <point x="0" y="701" type="curve" smooth="yes"/>
      <point x="37" y="701"/>
      <point x="57" y="671"/>
      <point x="57" y="640" type="curve" smooth="yes"/>
      <point x="57" y="609"/>
      <point x="36" y="578"/>
    </contour>
    <contour>
      <point x="0" y="539" type="curve" smooth="yes"/>
      <point x="53" y="539"/>
      <point x="104" y="577"/>
      <point x="104" y="640" type="curve" smooth="yes"/>
      <point x="104" y="705"/>
      <point x="53" y="740"/>
      <point x="0" y="740" type="curve" smooth="yes"/>
      <point x="-53" y="740"/>
      <point x="-104" y="702"/>
      <point x="-104" y="640" type="curve" smooth="yes"/>
      <point x="-104" y="575"/>
      <point x="-53" y="539"/>
    </contour>
  </outline>
</glyph>
<glyph name="prime" format="1">
  <advance width="249"/>
  <unicode hex="2032"/>
  <outline>
    <contour>
      <point x="135" y="738" type="curve" smooth="yes"/>
      <point x="119" y="738"/>
      <point x="100" y="732"/>
      <point x="82" y="719" type="curve"/>
      <point x="66" y="432" type="line"/>
      <point x="102" y="432" type="line"/>
      <point x="127" y="501" type="line" smooth="yes"/>
      <point x="155" y="579"/>
      <point x="178" y="649"/>
      <point x="178" y="686" type="curve" smooth="yes"/>
      <point x="178" y="715"/>
      <point x="165" y="738"/>
    </contour>
  </outline>
</glyph>
<glyph name="Euro" format="1">
  <advance width="497"/>
  <unicode hex="20AC"/>
  <outline>
    <contour>
      <point x="311" y="-15" type="curve" smooth="yes"/>
      <point x="404" y="-15"/>
      <point x="471" y="39"/>
      <point x="482" y="115" type="curve"/>
      <point x="478" y="137"/>
      <point x="461" y="148"/>
      <point x="439" y="148" type="curve" smooth="yes"/>
      <point x="415" y="148"/>
      <point x="391" y="135"/>
      <point x="378" y="82" type="curve" smooth="yes"/>
      <point x="356" y="6" type="line"/>
      <point x="419" y="48" type="line"/>
      <point x="381" y="33"/>
      <point x="352" y="30"/>
      <point x="333" y="30" type="curve" smooth="yes"/>
      <point x="223" y="30"/>
      <point x="154" y="133"/>
      <point x="154" y="322" type="curve" smooth="yes"/>
      <point x="154" y="512"/>
      <point x="226" y="615"/>
      <point x="335" y="615" type="curve" smooth="yes"/>
      <point x="352" y="615"/>
      <point x="390" y="613"/>
      <point x="433" y="594" type="curve"/>
      <point x="358" y="640" type="line"/>
      <point x="381" y="561" type="line" smooth="yes"/>
      <point x="396" y="510"/>
      <point x="414" y="495"/>
      <point x="438" y="495" type="curve" smooth="yes"/>
      <point x="459" y="495"/>
      <point x="481" y="507"/>
      <point x="487" y="531" type="curve"/>
      <point x="474" y="606"/>
      <point x="413" y="660"/>
      <point x="319" y="660" type="curve" smooth="yes"/>
      <point x="165" y="660"/>
      <point x="63" y="526"/>
      <point x="63" y="322" type="curve" smooth="yes"/>
      <point x="63" y="118"/>
      <point x="160" y="-15"/>
    </contour>
    <contour>
      <point x="11" y="352" type="line"/>
      <point x="383" y="352" type="line"/>
      <point x="383" y="402" type="line"/>
      <point x="11" y="402" type="line"/>
    </contour>
    <contour>
      <point x="11" y="235" type="line"/>
      <point x="383" y="235" type="line"/>
      <point x="383" y="285" type="line"/>
      <point x="11" y="285" type="line"/>
    </contour>
  </outline>
</glyph>
<glyph name="rupeeindian" format="1">
  <advance width="497"/>
  <unicode hex="20B9"/>
  <outline>
    <contour>
      <point x="48" y="478" type="line"/>
      <point x="436" y="478" type="line"/>
      <point x="436" y="528" type="line"/>
      <point x="48" y="528" type="line"/>
    </contour>
    <contour>
      <point x="48" y="341" type="line"/>
      <point x="48" y="291" type="line"/>
      <point x="84" y="291" type="line" smooth="yes"/>
      <point x="161" y="291"/>
      <point x="191" y="278"/>
      <point x="215" y="203" type="curve" smooth="yes"/>
      <point x="264" y="49" type="line" smooth="yes"/>
      <point x="278" y="5"/>
      <point x="308" y="-10"/>
      <point x="369" y="-10" type="curve" smooth="yes"/>
      <point x="400" y="-10"/>
      <point x="421" y="-6"/>
      <point x="439" y="0" type="curve"/>
      <point x="439" y="38" type="line"/>
      <point x="340" y="49" type="line"/>
      <point x="361" y="31" type="line"/>
      <point x="306" y="187" type="line" smooth="yes"/>
      <point x="277" y="271"/>
      <point x="250" y="302"/>
      <point x="183" y="313" type="curve"/>
      <point x="193" y="305" type="line"/>
      <point x="315" y="322"/>
      <point x="356" y="399"/>
      <point x="356" y="481" type="curve" smooth="yes"/>
      <point x="356" y="544"/>
      <point x="325" y="587"/>
      <point x="277" y="615" type="curve"/>
      <point x="260" y="595" type="line"/>
      <point x="436" y="595" type="line"/>
      <point x="436" y="645" type="line"/>
      <point x="48" y="645" type="line"/>
      <point x="48" y="595" type="line"/>
      <point x="138" y="595" type="line" smooth="yes"/>
      <point x="224" y="595"/>
      <point x="265" y="552"/>
      <point x="265" y="481" type="curve" smooth="yes"/>
      <point x="265" y="396"/>
      <point x="222" y="341"/>
      <point x="128" y="341" type="curve" smooth="yes"/>
    </contour>
  </outline>
</glyph>
<glyph name="acutecmb.cap" format="1">
  <advance width="0"/>
  <outline>
    <contour>
      <point x="-76" y="746" type="line"/>
      <point x="-58" y="722" type="line"/>
      <point x="66" y="789" type="line" smooth="yes"/>
      <point x="103" y="809"/>
      <point x="116" y="826"/>
      <point x="116" y="844" type="curve" smooth="yes"/>
      <point x="116" y="864"/>
      <point x="99" y="877"/>
      <point x="79" y="877" type="curve" smooth="yes"/>
      <point x="62" y="877"/>
      <point x="45" y="867"/>
      <point x="17" y="839" type="curve" smooth="yes"/>
    </contour>
  </outline>
</glyph>
<glyph name="brevecmb.cap" format="1">
  <advance width="0"/>
  <outline>
    <contour>
      <point x="0" y="732" type="curve" smooth="yes"/>
      <point x="91" y="732"/>
      <point x="134" y="800"/>
      <point x="143" y="859" type="curve"/>
      <point x="114" y="869" type="line"/>
      <point x="99" y="824"/>
      <point x="60" y="791"/>
      <point x="0" y="791" type="curve" smooth="yes"/>
      <point x="-60" y="791"/>
      <point x="-96" y="824"/>
      <point x="-113" y="870" type="curve"/>
      <point x="-143" y="859" type="line"/>
      <point x="-134" y="800"/>
      <point x="-91" y="732"/>
    </contour>
  </outline>
</glyph>
<glyph name="circumflexcmb.cap" format="1">
  <advance width="0"/>
  <outline>
    <contour>
      <point x="16" y="867" type="line"/>
      <point x="-16" y="867" type="line"/>
      <point x="-136" y="754" type="line"/>
      <point x="-117" y="730" type="line"/>
      <point x="42" y="827" type="line"/>
      <point x="-42" y="827" type="line"/>
      <point x="117" y="730" type="line"/>
      <point x="136" y="754" type="line"/>
    </contour>
  </outline>
</glyph>
<glyph name="dieresiscmb.cap" format="1">
  <advance width="0"/>
  <outline>
    <contour>
      <point x="-111" y="739" type="curve" smooth="yes"/>
      <point x="-80" y="739"/>
      <point x="-55" y="762"/>
      <point x="-55" y="793" type="curve" smooth="yes"/>
      <point x="-55" y="824"/>
      <point x="-80" y="847"/>
      <point x="-111" y="847" type="curve" smooth="yes"/>
      <point x="-142" y="847"/>
      <point x="-168" y="824"/>
      <point x="-168" y="793" type="curve" smooth="yes"/>
      <point x="-168" y="762"/>
      <point x="-142" y="739"/>
    </contour>
    <contour>
      <point x="110" y="739" type="curve" smooth="yes"/>
      <point x="141" y="739"/>
      <point x="167" y="762"/>
      <point x="167" y="793" type="curve" smooth="yes"/>
      <point x="167" y="824"/>
      <point x="141" y="847"/>
      <point x="110" y="847" type="curve" smooth="yes"/>
      <point x="79" y="847"/>
      <point x="54" y="824"/>
      <point x="54" y="793" type="curve" smooth="yes"/>
      <point x="54" y="762"/>
      <point x="79" y="739"/>
    </contour>
  </outline>
</glyph>
<glyph name="f_t" format="1">
  <advance width="642"/>
  <outline>
    <contour>
      <point x="452" y="472" type="line"/>
      <point x="452" y="420" type="line"/>
      <point x="630" y="420" type="line"/>
      <point x="630" y="472" type="line"/>
    </contour>
    <contour>
      <point x="492" y="114" type="curve" smooth="yes"/>
      <point x="492" y="433" type="line"/>
      <point x="500" y="610" type="line"/>
      <point x="442" y="610" type="line"/>
      <point x="412" y="446" type="line"/>
      <point x="452" y="472" type="line"/>
      <point x="298" y="472" type="line"/>
      <point x="298" y="420" type="line"/>
      <point x="412" y="420" type="line"/>
      <point x="412" y="187" type="line" smooth="yes"/>
      <point x="412" y="148"/>
      <point x="411" y="127"/>
      <point x="411" y="103" type="curve" smooth="yes"/>
      <point x="411" y="26"/>
      <point x="454" y="-10"/>
      <point x="523" y="-10" type="curve" smooth="yes"/>
      <point x="573" y="-10"/>
      <point x="614" y="9"/>
      <point x="639" y="41" type="curve"/>
      <point x="616" y="68" type="line"/>
      <point x="590" y="49"/>
      <point x="570" y="40"/>
      <point x="548" y="40" type="curve" smooth="yes"/>
      <point x="514" y="40"/>
      <point x="492" y="62"/>
    </contour>
    <component base="f"/>
  </outline>
</glyph>
<glyph name="five.lf" format="1">
  <advance width="506"/>
  <outline>
    <contour>
      <point x="103" y="365" type="line"/>
      <point x="146" y="365" type="line"/>
      <point x="163" y="610" type="line"/>
      <point x="136" y="565" type="line"/>
      <point x="441" y="565" type="line"/>
      <point x="441" y="645" type="line"/>
      <point x="116" y="645" type="line"/>
      <point x="95" y="343" type="line"/>
      <point x="123" y="336" type="line"/>
      <point x="154" y="343"/>
      <point x="187" y="347"/>
      <point x="215" y="347" type="curve" smooth="yes"/>
      <point x="313" y="347"/>
      <point x="374" y="292"/>
      <point x="374" y="192" type="curve" smooth="yes"/>
      <point x="374" y="95"/>
      <point x="321" y="30"/>
      <point x="222" y="30" type="curve" smooth="yes"/>
      <point x="194" y="30"/>
      <point x="164" y="35"/>
      <point x="129" y="50" type="curve"/>
      <point x="169" y="19" type="line"/>
      <point x="149" y="91" type="line" smooth="yes"/>
      <point x="136" y="143"/>
      <point x="122" y="158"/>
      <point x="92" y="158" type="curve" smooth="yes"/>
      <point x="69" y="158"/>
      <point x="51" y="147"/>
      <point x="42" y="125" type="curve"/>
      <point x="64" y="31"/>
      <point x="127" y="-15"/>
      <point x="228" y="-15" type="curve" smooth="yes"/>
      <point x="367" y="-15"/>
      <point x="459" y="74"/>
      <point x="459" y="202" type="curve" smooth="yes"/>
      <point x="459" y="335"/>
      <point x="370" y="407"/>
      <point x="241" y="407" type="curve" smooth="yes"/>
      <point x="192" y="407"/>
      <point x="150" y="398"/>
      <point x="103" y="380" type="curve"/>
    </contour>
  </outline>
</glyph>
<glyph name="one.tosf" format="1">
  <advance width="497"/>
  <outline>
    <contour>
      <point x="74" y="481" type="line"/>
      <point x="74" y="441" type="line"/>
      <point x="218" y="453" type="line"/>
      <point x="218" y="211" type="line" smooth="yes"/>
      <point x="218" y="141"/>
      <point x="217" y="70"/>
      <point x="215" y="0" type="curve"/>
      <point x="301" y="0" type="line"/>
      <point x="299" y="70"/>
      <point x="298" y="141"/>
      <point x="298" y="211" type="curve" smooth="yes"/>
      <point x="298" y="382" type="line"/>
      <point x="301" y="525" type="line"/>
      <point x="287" y="535" type="line"/>
    </contour>
    <contour>
      <point x="297" y="59" type="line"/>
      <point x="218" y="59" type="line"/>
      <point x="74" y="35" type="line"/>
      <point x="74" y="0" type="line"/>
      <point x="442" y="0" type="line"/>
      <point x="442" y="35" type="line"/>
    </contour>
  </outline>
</glyph>
<glyph name="seven.lf" format="1">
  <advance width="476"/>
  <outline>
    <contour>
      <point x="111" y="10" type="line"/>
      <point x="121" y="0" type="line"/>
      <point x="200" y="0" type="line"/>
      <point x="438" y="595" type="line"/>
      <point x="438" y="645" type="line"/>
      <point x="27" y="645" type="line"/>
      <point x="27" y="565" type="line"/>
      <point x="404" y="565" type="line"/>
      <point x="387" y="595" type="line"/>
    </contour>
  </outline>
</glyph>
<glyph name="two.lf" format="1">
  <advance width="507"/>
  <outline>
    <contour>
      <point x="57" y="0" type="line"/>
      <point x="465" y="0" type="line"/>
      <point x="465" y="80" type="line"/>
      <point x="98" y="80" type="line"/>
      <point x="110" y="60" type="line"/>
      <point x="256" y="200" type="line" smooth="yes"/>
      <point x="395" y="333"/>
      <point x="436" y="403"/>
      <point x="436" y="490" type="curve" smooth="yes"/>
      <point x="436" y="590"/>
      <point x="380" y="660"/>
      <point x="252" y="660" type="curve" smooth="yes"/>
      <point x="152" y="660"/>
      <point x="63" y="611"/>
      <point x="52" y="506" type="curve"/>
      <point x="63" y="486"/>
      <point x="80" y="474"/>
      <point x="102" y="474" type="curve" smooth="yes"/>
      <point x="130" y="474"/>
      <point x="146" y="493"/>
      <point x="159" y="541" type="curve" smooth="yes"/>
      <point x="183" y="629" type="line"/>
      <point x="127" y="593" type="line"/>
      <point x="164" y="610"/>
      <point x="205" y="615"/>
      <point x="229" y="615" type="curve" smooth="yes"/>
      <point x="302" y="615"/>
      <point x="350" y="563"/>
      <point x="350" y="481" type="curve" smooth="yes"/>
      <point x="350" y="403"/>
      <point x="306" y="319"/>
      <point x="213" y="224" type="curve" smooth="yes"/>
      <point x="57" y="64" type="line"/>
    </contour>
  </outline>
</glyph>
<glyph name="two.osf" format="1">
  <advance width="507"/>
  <outline>
    <contour>
      <point x="56" y="0" type="line"/>
      <point x="464" y="0" type="line"/>
      <point x="464" y="80" type="line"/>
      <point x="119" y="80" type="line"/>
      <point x="119" y="60" type="line"/>
      <point x="257" y="170" type="line" smooth="yes"/>
      <point x="387" y="274"/>
      <point x="431" y="314"/>
      <point x="431" y="390" type="curve" smooth="yes"/>
      <point x="431" y="475"/>
      <point x="375" y="540"/>
      <point x="256" y="540" type="curve" smooth="yes"/>
      <point x="160" y="540"/>
      <point x="64" y="492"/>
      <point x="53" y="386" type="curve"/>
      <point x="64" y="366"/>
      <point x="81" y="354"/>
      <point x="103" y="354" type="curve" smooth="yes"/>
      <point x="132" y="354"/>
      <point x="147" y="375"/>
      <point x="160" y="421" type="curve" smooth="yes"/>
      <point x="184" y="509" type="line"/>
      <point x="128" y="473" type="line"/>
      <point x="166" y="489"/>
      <point x="208" y="495"/>
      <point x="238" y="495" type="curve" smooth="yes"/>
      <point x="300" y="495"/>
      <point x="345" y="459"/>
      <point x="345" y="387" type="curve" smooth="yes"/>
      <point x="345" y="324"/>
      <point x="305" y="276"/>
      <point x="214" y="198" type="curve" smooth="yes"/>
      <point x="56" y="64" type="line"/>
    </contour>
  </outline>
</glyph>
